<svg xmlns="http://www.w3.org/2000/svg" xmlns:xlink="http://www.w3.org/1999/xlink" version="1.1" width="199" height="166" viewBox="0 0 199 166">
<defs>
<clipPath id="clip_1">
<path transform="matrix(1.00005,0,0,-1.00005,-61.663087,163.21535)" d="M64.75739 .01408H259.02955V161.4108H64.75739Z"/>
</clipPath>
<path id="font_2_74" d="M.8789978 0V.0309906H.8549957C.7779999 .0309906 .776001 .041992189 .776001 .07795715V.6046295C.776001 .64060977 .7779999 .6516113 .8549957 .6516113H.8789978V.6826172H.70999148C.6839905 .6826172 .6839905 .6816101 .6769867 .66360476L.45799256 .10095215 .24099732 .660614C.23199463 .6826172 .22898865 .6826172 .20599365 .6826172H.036987306V.6516113H.06098938C.13798523 .6516113 .13999939 .64060977 .13999939 .6046295V.10494995C.13999939 .07795715 .13999939 .0309906 .036987306 .0309906V0L.1539917 .0029907227 .2709961 0V.0309906C.16799927 .0309906 .16799927 .07795715 .16799927 .10494995V.6436157H.16899109L.4099884 .021987915C.4149933 .008987427 .41999818 0 .42999269 0 .44099427 0 .44400025 .0079956059 .44799806 .018997193L.69400027 .6516113H.69499209V.07795715C.69499209 .041992189 .69299319 .0309906 .6159973 .0309906H.59199526V0C.6289978 .0029907227 .69699099 .0029907227 .73599246 .0029907227 .7749939 .0029907227 .84199526 .0029907227 .8789978 0Z"/>
<path id="font_2_50" d="M.4149933 .11933899C.4149933 .12934876 .40699769 .13134766 .4019928 .13134766 .3929901 .13134766 .3909912 .12535095 .3889923 .11734009 .35398866 .014251709 .2639923 .014251709 .2539978 .014251709 .20399475 .014251709 .1639862 .044281007 .14099121 .08131409 .11099243 .12934876 .11099243 .19540406 .11099243 .23144531H.3899994C.4119873 .23144531 .4149933 .23144531 .4149933 .2524414 .4149933 .35131837 .36099244 .4482422 .23599243 .4482422 .11999512 .4482422 .027999878 .34532167 .027999878 .22042847 .027999878 .08631897 .1329956-.0107421879 .24798584-.0107421879 .36999513-.0107421879 .4149933 .10032654 .4149933 .11933899M.34899903 .2524414H.11199951C.117996219 .40126039 .20199585 .426239 .23599243 .426239 .33898927 .426239 .34899903 .2913971 .34899903 .2524414Z"/>
<path id="font_2_28" d="M.48298646 .08912659V.14511109H.45799256V.08912659C.45799256 .03112793 .43299867 .025131226 .42199708 .025131226 .3889923 .025131226 .3849945 .070129398 .3849945 .07511902V.27508546C.3849945 .31707765 .3849945 .3560791 .34899903 .39312745 .30999757 .43223573 .2599945 .4482422 .21199036 .4482422 .12998963 .4482422 .06098938 .40115357 .06098938 .335083 .06098938 .30508424 .08099365 .28808595 .10699463 .28808595 .1349945 .28808595 .15299988 .30807496 .15299988 .33407594 .15299988 .3460846 .147995 .37908937 .101989749 .38008119 .1289978 .41519166 .17799378 .426239 .20999146 .426239 .25898744 .426239 .31599427 .38710023 .31599427 .29808045V.26107789C.2649994 .25808717 .19499207 .25508119 .13198853 .22509766 .056991579 .19110108 .03199768 .13911438 .03199768 .09512329 .03199768 .014251709 .1289978-.0107421879 .19198609-.0107421879 .2579956-.0107421879 .3039856 .029251099 .32299806 .07624817 .32699586 .036132814 .35398866-.005859375 .40098573-.005859375 .42199708-.005859375 .48298646 .008132935 .48298646 .08912659M.31599427 .14013672C.31599427 .04525757 .24398804 .011245728 .19898987 .011245728 .1499939 .011245728 .10899353 .04624939 .10899353 .09625244 .10899353 .15124512 .15098572 .23425293 .31599427 .24024964V.14013672Z"/>
<path id="font_2_77" d="M.5349884 0V.0309906C.48298646 .0309906 .45799256 .0309906 .45700074 .061019899V.25221253C.45700074 .3383026 .45700074 .36932374 .42599488 .405365 .4119873 .42237855 .3789978 .4423828 .32099916 .4423828 .24798584 .4423828 .20098877 .39935304 .17298889 .33729554V.4423828L.03199768 .43066407V.3996582C.101989749 .3996582 .10998535 .39266969 .10998535 .34370423V.07595825C.10998535 .0309906 .09899902 .0309906 .03199768 .0309906V0L.14498902 .0029907227 .25698854 0V.0309906C.18998719 .0309906 .1789856 .0309906 .1789856 .07595825V.25978089C.1789856 .36431886 .25 .42037965 .31399537 .42037965 .3769989 .42037965 .3880005 .36631776 .3880005 .30926515V.076034549C.3880005 .0309906 .3769989 .0309906 .30999757 .0309906V0L.4229889 .0029907227 .5349884 0Z"/>
<path id="font_2_45" d="M.20298767 .0009918213C.20298767 .06498718 .1789856 .10598755 .13899231 .10598755 .10398865 .10598755 .085998538 .07899475 .085998538 .052993776 .085998538 .026992798 .102996829 0 .13899231 0 .1539917 0 .16799927 .005996704 .1789856 .015991211 .18099976-.06312561 .15299988-.12423706 .10899353-.17132569 .102996829-.17733765 .101989749-.17834473 .101989749-.18234253 .101989749-.18936157 .10699463-.19335938 .11199951-.19335938 .12399292-.19335938 .20298767-.114227298 .20298767 .0009918213Z"/>
<path id="font_2_47" d="M.5269928 0V.0309906C.45700074 .0309906 .44898988 .038009645 .44898988 .0871582V.69433596L.30499269 .6826172V.6516113C.375 .6516113 .3829956 .64463809 .3829956 .59580996V.38035584C.35398866 .41636659 .31098939 .4423828 .25698854 .4423828 .13899231 .4423828 .033996583 .3443451 .033996583 .21531677 .033996583 .088272098 .13198853-.0107421879 .24598694-.0107421879 .30999757-.0107421879 .35499574 .023254395 .37998963 .055267335V-.0107421879L.5269928 0M.37998963 .117996219C.37998963 .099990848 .37998963 .09799194 .36898805 .08099365 .33898927 .033218385 .2939911 .011245728 .25099183 .011245728 .20599365 .011245728 .16999817 .037216188 .1459961 .075164798 .11999512 .1161499 .116989139 .17320252 .116989139 .21421814 .116989139 .25125123 .11898804 .31129457 .147995 .35632325 .16899109 .38734437 .20698548 .42037965 .26098634 .42037965 .29599 .42037965 .33799745 .405365 .36898805 .3603363 .37998963 .34332276 .37998963 .34132386 .37998963 .32330323V.117996219Z"/>
<path id="font_2_66" d="M.24699402 0V.0309906C.18099976 .0309906 .1769867 .035995485 .1769867 .075042728V.4423828L.036987306 .43066407V.3996582C.101989749 .3996582 .11099243 .3936615 .11099243 .3447113V.07595825C.11099243 .0309906 .099990848 .0309906 .032989503 .0309906V0L.14299011 .0029907227C.17799378 .0029907227 .21299744 .0009918213 .24699402 0M.19198609 .603775C.19198609 .6307678 .16899109 .6567688 .13899231 .6567688 .10499573 .6567688 .084991458 .6287689 .084991458 .603775 .084991458 .57676699 .10798645 .55078127 .13798523 .55078127 .17199707 .55078127 .19198609 .5787811 .19198609 .603775Z"/>
<path id="font_2_81" d="M.47099305 .21424866C.47099305 .34223939 .37098695 .4482422 .25 .4482422 .125 .4482422 .027999878 .3392334 .027999878 .21424866 .027999878 .085250858 .13198853-.0107421879 .24899292-.0107421879 .36999513-.0107421879 .47099305 .087249759 .47099305 .21424866M.3880005 .22224427C.3880005 .18624878 .3880005 .13224793 .3659973 .08824158 .34399415 .04324341 .2999878 .014251709 .25 .014251709 .20698548 .014251709 .16299439 .035247804 .13598633 .08125305 .11099243 .12524414 .11099243 .18624878 .11099243 .22224427 .11099243 .26124574 .11099243 .31523133 .1349945 .35923768 .1619873 .40522767 .20899964 .426239 .24899292 .426239 .29299928 .426239 .33599855 .40423585 .3619995 .36123658 .3880005 .3182373 .3880005 .26023866 .3880005 .22224427Z"/>
</defs>
<path transform="matrix(1.00005,0,0,-1.00005,-61.663087,163.21535)" stroke-width=".3985" stroke-linecap="butt" stroke-miterlimit="10" stroke-linejoin="miter" fill="none" stroke="#000000" d="M64.75739 .01408H257.03703"/>
<path transform="matrix(1.00005,0,0,-1.00005,195.38678,163.20127)" d="M1.99252 0-1.19551 1.59401 0 0-1.19551-1.59401"/>
<path transform="matrix(1.00005,0,0,-1.00005,-61.663087,163.21535)" stroke-width=".3985" stroke-linecap="butt" stroke-miterlimit="10" stroke-linejoin="miter" fill="none" stroke="#000000" d="M64.75739 .01408V159.41828"/>
<path transform="matrix(0,-1.00005,-1.00005,-0,3.0975419,3.7891083)" d="M1.99252 0-1.19551 1.59401 0 0-1.19551-1.59401"/>
<g clip-path="url(#clip_1)">
<path transform="matrix(1.00005,0,0,-1.00005,-61.663087,163.21535)" stroke-width=".79701" stroke-linecap="butt" stroke-miterlimit="10" stroke-linejoin="miter" fill="none" stroke="#000000" d="M0 0H1.62701 3.25404 4.88107 6.5081 8.13513 9.76216 11.38919 13.01622 14.64325 16.27028 17.89731 19.52434 21.15137 22.7784 24.40543 26.03246 27.65947 29.28651 30.91353 32.54057 34.16759L35.79463 .00002 37.42165 .00003 39.04869 .00005 40.67572 .00006 42.30275 .0001 43.92978 .00015 45.55681 .00024 47.18384 .00035 48.81087 .00052 50.4379 .00075 52.06493 .00107 53.69196 .00151 55.31898 .0021 56.94601 .00293 58.57303 .00406 60.20007 .00558 61.82709 .00764 63.45413 .01039 65.08116 .01408 66.70819 .01898 68.33522 .02544 69.96225 .03394 71.58928 .04501 73.21631 .05946 74.84332 .0781 76.47037 .10207 78.0974 .13274 79.72443 .17172 81.35146 .22107 82.97849 .28314 84.60551 .36082 86.23254 .45749 87.85957 .57715 89.4866 .72443 91.11363 .90471 92.74066 1.12411 94.36769 1.38977 95.99472 1.70949 97.62175 2.09218 99.24876 2.5477 100.87581 3.0867 102.50282 3.72095 104.12987 4.46289 105.75688 5.32582 107.38393 6.32365 109.01094 7.47043 110.63799 8.78085 112.265 10.26912 113.89204 11.94655 115.51907 13.82967 117.1461 15.92906 118.77313 18.26523 120.40016 20.8263 122.02719 23.63591 123.6542 26.68228 125.28125 29.96428 126.90826 33.48413 128.53531 37.22992 130.16234 41.18988 131.78937 45.34459 133.4164 49.6607 135.04343 54.10489 136.67046 58.65881 138.29749 63.28702 139.9245 67.91628 141.55155 72.5337 143.17856 77.06503 144.8056 81.46724 146.43262 85.68546 148.05966 89.66907 149.68668 93.37076 151.31372 96.72917 152.94074 99.71097 154.56778 102.26126 156.19481 104.34993 157.82184 105.9425 159.44887 107.01965 161.0759 107.55768H162.70293L164.33005 107.01965 165.95693 105.9425 167.58406 104.34993 169.21094 102.27203 170.83806 99.72067 172.4652 96.75069 174.09207 93.38152 175.71921 89.6906 177.34609 85.70697 178.97322 81.48877 180.60034 77.08655 182.22722 72.55522 183.85434 67.93779 185.48123 63.30852 187.10836 58.68034 188.73549 54.12857 190.36237 49.68224 191.9895 45.36719 193.61638 41.2114 195.24352 37.25143 196.87064 33.50565 198.49752 29.97505 200.12465 26.69194 201.75153 23.64558 203.37866 20.83598 205.00579 18.27492 206.63266 15.94952 208.25978 13.84042 209.88668 11.9562 211.5138 10.27698 213.14093 8.78764 214.7678 7.47656 216.39495 6.32883 218.0218 5.33046 219.64896 4.4669 221.27606 3.72429 222.90296 3.08963 224.53008 2.55014 226.15697 2.09428 227.78409 1.71123 229.41123 1.39117 231.0381 1.12535 232.66524 .90567 234.29212 .72525 235.91924 .5778 237.54637 .45802 239.17325 .36127 240.80039 .28348 242.42726 .22134 244.0544 .17194 245.68152 .1329 247.3084 .1022 248.93552 .0782 250.56241 .05954 252.18953 .04509 253.81667 .03398 255.44355 .02548 257.07069 .019 258.69755 .0141 260.32469 .0104 261.9518 .00766 263.5787 .00558 265.2058 .00406 266.8327 .00294 268.45985 .0021 270.08699 .00151 271.71385 .00107 273.34098 .00075 274.96788 .00052 276.59498 .00035 278.2221 .00024 279.84898 .00015 281.47615 .0001 283.10298 .00006 284.73014 .00005 286.35725 .00003 287.98414 .00002 289.61125 0H291.23814 292.86528 294.4924 296.11927 297.7464 299.3733 301.0004 302.62754 304.25444 305.88157 307.50846 309.13557 310.7627 312.38957 314.0167 315.6436 317.2707 318.89784 320.52473 322.15187 323.77873"/>
<path transform="matrix(1.00005,0,0,-1.00005,-61.663087,163.21535)" stroke-width=".3985" stroke-linecap="butt" stroke-dasharray="2.98883,2.98883" stroke-miterlimit="10" stroke-linejoin="miter" fill="none" stroke="#000000" d="M161.89347 0V107.6072"/>
<use data-text="M" xlink:href="#font_2_74" transform="matrix(9.963098,0,0,-9.963098,53.734674,50.1597)"/>
<use data-text="e" xlink:href="#font_2_50" transform="matrix(9.963098,0,0,-9.963098,62.870836,50.1597)"/>
<use data-text="a" xlink:href="#font_2_28" transform="matrix(9.963098,0,0,-9.963098,67.29445,50.1597)"/>
<use data-text="n" xlink:href="#font_2_77" transform="matrix(9.963098,0,0,-9.963098,72.276,50.1597)"/>
<use data-text="," xlink:href="#font_2_45" transform="matrix(9.963098,0,0,-9.963098,77.81548,50.1597)"/>
<use data-text="M" xlink:href="#font_2_74" transform="matrix(9.963098,0,0,-9.963098,83.892978,50.1597)"/>
<use data-text="e" xlink:href="#font_2_50" transform="matrix(9.963098,0,0,-9.963098,93.02913,50.1597)"/>
<use data-text="d" xlink:href="#font_2_47" transform="matrix(9.963098,0,0,-9.963098,97.45274,50.1597)"/>
<use data-text="i" xlink:href="#font_2_66" transform="matrix(9.963098,0,0,-9.963098,102.99223,50.1597)"/>
<use data-text="a" xlink:href="#font_2_28" transform="matrix(9.963098,0,0,-9.963098,105.76197,50.1597)"/>
<use data-text="n" xlink:href="#font_2_77" transform="matrix(9.963098,0,0,-9.963098,110.74352,50.1597)"/>
<use data-text="," xlink:href="#font_2_45" transform="matrix(9.963098,0,0,-9.963098,116.283008,50.1597)"/>
<use data-text="M" xlink:href="#font_2_74" transform="matrix(9.963098,0,0,-9.963098,122.37045,50.1597)"/>
<use data-text="o" xlink:href="#font_2_81" transform="matrix(9.963098,0,0,-9.963098,131.50662,50.1597)"/>
<use data-text="d" xlink:href="#font_2_47" transform="matrix(9.963098,0,0,-9.963098,136.76712,50.1597)"/>
<use data-text="e" xlink:href="#font_2_50" transform="matrix(9.963098,0,0,-9.963098,142.30661,50.1597)"/>
</g>
</svg>
