<svg xmlns="http://www.w3.org/2000/svg" xmlns:xlink="http://www.w3.org/1999/xlink" version="1.1" width="199" height="166" viewBox="0 0 199 166">
<defs>
<clipPath id="clip_1">
<path transform="matrix(1.00003,0,0,-1.00005,3.0964967,163.20134)" d="M0 0H194.26988V161.39676H0Z"/>
</clipPath>
<path id="font_2_74" d="M.8789978 0V.0309906H.8549957C.7779999 .0309906 .776001 .041992189 .776001 .07795715V.6046295C.776001 .64060977 .7779999 .6516113 .8549957 .6516113H.8789978V.6826172H.70999148C.6839905 .6826172 .6839905 .6816101 .6769867 .66360476L.45799256 .10095215 .24099732 .660614C.23199463 .6826172 .22898865 .6826172 .20599365 .6826172H.036987306V.6516113H.06098938C.13798523 .6516113 .13999939 .64060977 .13999939 .6046295V.10494995C.13999939 .07795715 .13999939 .0309906 .036987306 .0309906V0L.1539917 .0029907227 .2709961 0V.0309906C.16799927 .0309906 .16799927 .07795715 .16799927 .10494995V.6436157H.16899109L.4099884 .021987915C.4149933 .008987427 .41999818 0 .42999269 0 .44099427 0 .44400025 .0079956059 .44799806 .018997193L.69400027 .6516113H.69499209V.07795715C.69499209 .041992189 .69299319 .0309906 .6159973 .0309906H.59199526V0C.6289978 .0029907227 .69699099 .0029907227 .73599246 .0029907227 .7749939 .0029907227 .84199526 .0029907227 .8789978 0Z"/>
<path id="font_2_50" d="M.4149933 .11933899C.4149933 .12934876 .40699769 .13134766 .4019928 .13134766 .3929901 .13134766 .3909912 .12535095 .3889923 .11734009 .35398866 .014251709 .2639923 .014251709 .2539978 .014251709 .20399475 .014251709 .1639862 .044281007 .14099121 .08131409 .11099243 .12934876 .11099243 .19540406 .11099243 .23144531H.3899994C.4119873 .23144531 .4149933 .23144531 .4149933 .2524414 .4149933 .35131837 .36099244 .4482422 .23599243 .4482422 .11999512 .4482422 .027999878 .34532167 .027999878 .22042847 .027999878 .08631897 .1329956-.0107421879 .24798584-.0107421879 .36999513-.0107421879 .4149933 .10032654 .4149933 .11933899M.34899903 .2524414H.11199951C.117996219 .40126039 .20199585 .426239 .23599243 .426239 .33898927 .426239 .34899903 .2913971 .34899903 .2524414Z"/>
<path id="font_2_47" d="M.5269928 0V.0309906C.45700074 .0309906 .44898988 .038009645 .44898988 .0871582V.69433596L.30499269 .6826172V.6516113C.375 .6516113 .3829956 .64463809 .3829956 .59580996V.38035584C.35398866 .41636659 .31098939 .4423828 .25698854 .4423828 .13899231 .4423828 .033996583 .3443451 .033996583 .21531677 .033996583 .088272098 .13198853-.0107421879 .24598694-.0107421879 .30999757-.0107421879 .35499574 .023254395 .37998963 .055267335V-.0107421879L.5269928 0M.37998963 .117996219C.37998963 .099990848 .37998963 .09799194 .36898805 .08099365 .33898927 .033218385 .2939911 .011245728 .25099183 .011245728 .20599365 .011245728 .16999817 .037216188 .1459961 .075164798 .11999512 .1161499 .116989139 .17320252 .116989139 .21421814 .116989139 .25125123 .11898804 .31129457 .147995 .35632325 .16899109 .38734437 .20698548 .42037965 .26098634 .42037965 .29599 .42037965 .33799745 .405365 .36898805 .3603363 .37998963 .34332276 .37998963 .34132386 .37998963 .32330323V.117996219Z"/>
<path id="font_2_66" d="M.24699402 0V.0309906C.18099976 .0309906 .1769867 .035995485 .1769867 .075042728V.4423828L.036987306 .43066407V.3996582C.101989749 .3996582 .11099243 .3936615 .11099243 .3447113V.07595825C.11099243 .0309906 .099990848 .0309906 .032989503 .0309906V0L.14299011 .0029907227C.17799378 .0029907227 .21299744 .0009918213 .24699402 0M.19198609 .603775C.19198609 .6307678 .16899109 .6567688 .13899231 .6567688 .10499573 .6567688 .084991458 .6287689 .084991458 .603775 .084991458 .57676699 .10798645 .55078127 .13798523 .55078127 .17199707 .55078127 .19198609 .5787811 .19198609 .603775Z"/>
<path id="font_2_28" d="M.48298646 .08912659V.14511109H.45799256V.08912659C.45799256 .03112793 .43299867 .025131226 .42199708 .025131226 .3889923 .025131226 .3849945 .070129398 .3849945 .07511902V.27508546C.3849945 .31707765 .3849945 .3560791 .34899903 .39312745 .30999757 .43223573 .2599945 .4482422 .21199036 .4482422 .12998963 .4482422 .06098938 .40115357 .06098938 .335083 .06098938 .30508424 .08099365 .28808595 .10699463 .28808595 .1349945 .28808595 .15299988 .30807496 .15299988 .33407594 .15299988 .3460846 .147995 .37908937 .101989749 .38008119 .1289978 .41519166 .17799378 .426239 .20999146 .426239 .25898744 .426239 .31599427 .38710023 .31599427 .29808045V.26107789C.2649994 .25808717 .19499207 .25508119 .13198853 .22509766 .056991579 .19110108 .03199768 .13911438 .03199768 .09512329 .03199768 .014251709 .1289978-.0107421879 .19198609-.0107421879 .2579956-.0107421879 .3039856 .029251099 .32299806 .07624817 .32699586 .036132814 .35398866-.005859375 .40098573-.005859375 .42199708-.005859375 .48298646 .008132935 .48298646 .08912659M.31599427 .14013672C.31599427 .04525757 .24398804 .011245728 .19898987 .011245728 .1499939 .011245728 .10899353 .04624939 .10899353 .09625244 .10899353 .15124512 .15098572 .23425293 .31599427 .24024964V.14013672Z"/>
<path id="font_2_77" d="M.5349884 0V.0309906C.48298646 .0309906 .45799256 .0309906 .45700074 .061019899V.25221253C.45700074 .3383026 .45700074 .36932374 .42599488 .405365 .4119873 .42237855 .3789978 .4423828 .32099916 .4423828 .24798584 .4423828 .20098877 .39935304 .17298889 .33729554V.4423828L.03199768 .43066407V.3996582C.101989749 .3996582 .10998535 .39266969 .10998535 .34370423V.07595825C.10998535 .0309906 .09899902 .0309906 .03199768 .0309906V0L.14498902 .0029907227 .25698854 0V.0309906C.18998719 .0309906 .1789856 .0309906 .1789856 .07595825V.25978089C.1789856 .36431886 .25 .42037965 .31399537 .42037965 .3769989 .42037965 .3880005 .36631776 .3880005 .30926515V.076034549C.3880005 .0309906 .3769989 .0309906 .30999757 .0309906V0L.4229889 .0029907227 .5349884 0Z"/>
<path id="font_2_81" d="M.47099305 .21424866C.47099305 .34223939 .37098695 .4482422 .25 .4482422 .125 .4482422 .027999878 .3392334 .027999878 .21424866 .027999878 .085250858 .13198853-.0107421879 .24899292-.0107421879 .36999513-.0107421879 .47099305 .087249759 .47099305 .21424866M.3880005 .22224427C.3880005 .18624878 .3880005 .13224793 .3659973 .08824158 .34399415 .04324341 .2999878 .014251709 .25 .014251709 .20698548 .014251709 .16299439 .035247804 .13598633 .08125305 .11099243 .12524414 .11099243 .18624878 .11099243 .22224427 .11099243 .26124574 .11099243 .31523133 .1349945 .35923768 .1619873 .40522767 .20899964 .426239 .24899292 .426239 .29299928 .426239 .33599855 .40423585 .3619995 .36123658 .3880005 .3182373 .3880005 .26023866 .3880005 .22224427Z"/>
</defs>
<path transform="matrix(1.00003,0,0,-1.00005,3.0964967,163.20134)" stroke-width=".3985" stroke-linecap="butt" stroke-miterlimit="10" stroke-linejoin="miter" fill="none" stroke="#000000" d="M0 0H192.27735"/>
<path transform="matrix(1.00003,0,0,-1.00005,195.37963,163.20134)" d="M1.99252 0-1.19551 1.59401 0 0-1.19551-1.59401"/>
<path transform="matrix(1.00003,0,0,-1.00005,3.0964967,163.20134)" stroke-width=".3985" stroke-linecap="butt" stroke-miterlimit="10" stroke-linejoin="miter" fill="none" stroke="#000000" d="M0 0V159.40424"/>
<path transform="matrix(0,-1.00005,-1.00003,-0,3.0964967,3.7891389)" d="M1.99252 0-1.19551 1.59401 0 0-1.19551-1.59401"/>
<g clip-path="url(#clip_1)">
<path transform="matrix(1.00003,0,0,-1.00005,3.0964967,163.20134)" stroke-width=".79701" stroke-linecap="butt" stroke-miterlimit="10" stroke-linejoin="miter" fill="none" stroke="#000000" d="M0 10.87207 .88747 11.09274 1.77495 11.31744 2.66241 11.54666 3.54991 11.78014 4.4374 12.0178 5.32486 12.26024 6.21234 12.50699 7.09984 12.75856 7.9873 13.01488 8.8748 13.27571 9.76228 13.54155 10.64975 13.81238 11.53725 14.08801 12.42473 14.36882 13.3122 14.65474 14.19968 14.94582 15.08716 15.24254 15.97464 15.54437 16.86212 15.8519 17.7496 16.1651 18.63708 16.4837 19.52457 16.80844 20.41205 17.13876 21.29953 17.47502 22.18701 17.81728 23.0745 18.16557 23.96198 18.52016 24.84946 18.8812 25.73692 19.24828 26.62442 19.62198 27.5119 20.0023 28.39938 20.38908 29.28687 20.78284 30.17433 21.18309 31.06183 21.59074 31.94931 22.0052 32.83678 22.42645 33.72426 22.85533 34.61176 23.29128 35.49922 23.7345 36.38672 24.1858 37.2742 24.64413 38.16167 25.10992 39.04915 25.58432 39.93665 26.06581 40.82411 26.55548 41.71161 27.05342 42.59908 27.55902 43.48656 28.07336 44.37405 28.59584 45.26152 29.12657 46.149 29.66594 47.03648 30.21373 47.92397 30.77061 48.81145 31.33594 49.69894 31.90976 50.58641 32.49318 51.47389 33.0855 52.36137 33.68646 53.24886 34.29721 54.13634 34.9166 55.02382 35.5457 55.9113 36.18437 56.79878 36.83199 57.68625 37.48952 58.57375 38.15675 59.46123 38.83339 60.3487 39.5196 61.23619 40.2162 62.12367 40.92186 63.01114 41.63803 63.89862 42.3638 64.78612 43.10028 65.67358 43.84593 66.56107 44.60141 67.44856 45.36787 68.33603 46.14398 69.22353 46.92992 70.111 47.72708 70.99847 48.53296 71.88596 49.34976 72.77344 50.1772 73.66092 51.01361 74.5484 51.86092 75.43588 52.7182 76.32336 53.58528 77.21085 54.46243 78.09833 55.35013 78.98581 56.24655 79.87329 57.15367 80.76077 58.06953 81.64825 58.99635 82.53574 59.93225 83.4232 60.87686 84.3107 61.83199 85.19817 62.79552 86.08566 63.76764 86.97314 64.74983 87.86061 65.73926 88.74811 66.738 89.63564 67.7455 90.52303 68.75969 91.41057 69.7826 92.29797 70.81335 93.1855 71.85031 94.07304 72.89465 94.96045 73.945 95.84798 74.99886 96.73538 76.07256 97.62291 77.09683 98.51045 78.15761 99.39786 79.25221 100.28537 80.36395 101.17278 81.42882 102.06032 82.51457 102.94785 83.619 103.83525 84.74644 104.7228 85.81519 105.61018 86.89697 106.49773 87.98917 107.38527 89.08315 108.27266 90.18936 109.1602 91.30478 110.0476 92.41498 110.93512 93.46333 111.82266 94.56857 112.71005 95.66734 113.5976 96.70534 114.485 97.77898 115.37253 98.84998 116.26007 99.89899 117.14748 100.92429 118.035 101.93906 118.92241 102.97777 119.80995 103.93689 120.69746 104.91867 121.58487 105.92358 122.47241 106.83217 123.3598 107.76231 124.24734 108.64589 125.13487 109.53261 126.02228 110.4181 126.90982 111.21039 127.79721 112.03494 128.68476 112.75703 129.5723 113.50159 130.45969 114.18588 131.34722 114.84814 132.23462 115.47557 133.12216 116.02719 134.00969 116.54002 134.8971 117.05127 135.78462 117.47075 136.67203 117.84062 137.55957 118.14452 138.4471 118.39229 139.3345 118.60272 140.22203 118.705 141.10944 118.75894 141.99698 118.73456 142.8845 118.6486 143.77191 118.47041 144.65944 118.18806 145.54683 117.83199 146.43437 117.38542 147.32192 116.82591 148.2093 116.1669 149.09685 115.40268 149.98426 114.52715 150.87178 113.50821 151.75933 112.39168 152.64673 111.13722 153.53426 109.74103 154.42166 108.2173 155.30918 106.51811 156.19672 104.69112 157.08412 102.67522 157.97165 100.50986 158.85906 98.15724 159.7466 95.6237 160.63413 92.89862 161.52153 89.97302 162.40908 86.82 163.29647 83.47577 164.184 79.88722 165.07154 76.06793 165.95893 72.00781 166.84647 67.68492 167.73386 63.09758 168.6214 58.2334 169.50894 53.07907 170.39633 47.6267 171.28388 41.85895 172.17128 35.77148 173.0588 29.34344 173.94635 22.56908 174.83376 15.42792 175.72127 7.90962 176.60868 0"/>
<path transform="matrix(1.00003,0,0,-1.00005,3.0964967,163.20134)" stroke-width=".3985" stroke-linecap="butt" stroke-dasharray="2.98883,2.98883" stroke-miterlimit="10" stroke-linejoin="miter" fill="none" stroke="#000000" d="M117.26836-.00262V100.06497"/>
<use data-text="M" xlink:href="#font_2_74" transform="matrix(9.962899,0,0,-9.963098,84.45894,59.50216)"/>
<use data-text="e" xlink:href="#font_2_50" transform="matrix(9.962899,0,0,-9.963098,93.59492,59.50216)"/>
<use data-text="d" xlink:href="#font_2_47" transform="matrix(9.962899,0,0,-9.963098,98.01844,59.50216)"/>
<use data-text="i" xlink:href="#font_2_66" transform="matrix(9.962899,0,0,-9.963098,103.557819,59.50216)"/>
<use data-text="a" xlink:href="#font_2_28" transform="matrix(9.962899,0,0,-9.963098,106.3275,59.50216)"/>
<use data-text="n" xlink:href="#font_2_77" transform="matrix(9.962899,0,0,-9.963098,111.30895,59.50216)"/>
<path transform="matrix(1.00003,0,0,-1.00005,3.0964967,163.20134)" stroke-width=".3985" stroke-linecap="butt" stroke-dasharray="2.98883,2.98883" stroke-miterlimit="10" stroke-linejoin="miter" fill="none" stroke="#000000" d="M105.96538-.00262V87.15303"/>
<use data-text="M" xlink:href="#font_2_74" transform="matrix(9.962899,0,0,-9.963098,81.46485,79.39115)"/>
<use data-text="e" xlink:href="#font_2_50" transform="matrix(9.962899,0,0,-9.963098,90.60083,79.39115)"/>
<use data-text="a" xlink:href="#font_2_28" transform="matrix(9.962899,0,0,-9.963098,95.02435,79.39115)"/>
<use data-text="n" xlink:href="#font_2_77" transform="matrix(9.962899,0,0,-9.963098,100.005809,79.39115)"/>
<path transform="matrix(1.00003,0,0,-1.00005,3.0964967,163.20134)" stroke-width=".3985" stroke-linecap="butt" stroke-dasharray="2.98883,2.98883" stroke-miterlimit="10" stroke-linejoin="miter" fill="none" stroke="#000000" d="M141.28719-.00262V119.4329"/>
<use data-text="M" xlink:href="#font_2_74" transform="matrix(9.962899,0,0,-9.963098,132.20838,40.133195)"/>
<use data-text="o" xlink:href="#font_2_81" transform="matrix(9.962899,0,0,-9.963098,141.34436,40.133195)"/>
<use data-text="d" xlink:href="#font_2_47" transform="matrix(9.962899,0,0,-9.963098,146.60477,40.133195)"/>
<use data-text="e" xlink:href="#font_2_50" transform="matrix(9.962899,0,0,-9.963098,152.14414,40.133195)"/>
</g>
</svg>
