<svg xmlns="http://www.w3.org/2000/svg" xmlns:xlink="http://www.w3.org/1999/xlink" version="1.1" width="199" height="166" viewBox="0 0 199 166">
<defs>
<clipPath id="clip_1">
<path transform="matrix(1.00006,0,0,-1.00002,3.0959855,163.19095)" d="M0 0H194.27335V161.3918H0Z"/>
</clipPath>
<path id="font_2_74" d="M.8789978 0V.0309906H.8549957C.7779999 .0309906 .776001 .041992189 .776001 .07795715V.6046295C.776001 .64060977 .7779999 .6516113 .8549957 .6516113H.8789978V.6826172H.70999148C.6839905 .6826172 .6839905 .6816101 .6769867 .66360476L.45799256 .10095215 .24099732 .660614C.23199463 .6826172 .22898865 .6826172 .20599365 .6826172H.036987306V.6516113H.06098938C.13798523 .6516113 .13999939 .64060977 .13999939 .6046295V.10494995C.13999939 .07795715 .13999939 .0309906 .036987306 .0309906V0L.1539917 .0029907227 .2709961 0V.0309906C.16799927 .0309906 .16799927 .07795715 .16799927 .10494995V.6436157H.16899109L.4099884 .021987915C.4149933 .008987427 .41999818 0 .42999269 0 .44099427 0 .44400025 .0079956059 .44799806 .018997193L.69400027 .6516113H.69499209V.07795715C.69499209 .041992189 .69299319 .0309906 .6159973 .0309906H.59199526V0C.6289978 .0029907227 .69699099 .0029907227 .73599246 .0029907227 .7749939 .0029907227 .84199526 .0029907227 .8789978 0Z"/>
<path id="font_2_50" d="M.4149933 .11933899C.4149933 .12934876 .40699769 .13134766 .4019928 .13134766 .3929901 .13134766 .3909912 .12535095 .3889923 .11734009 .35398866 .014251709 .2639923 .014251709 .2539978 .014251709 .20399475 .014251709 .1639862 .044281007 .14099121 .08131409 .11099243 .12934876 .11099243 .19540406 .11099243 .23144531H.3899994C.4119873 .23144531 .4149933 .23144531 .4149933 .2524414 .4149933 .35131837 .36099244 .4482422 .23599243 .4482422 .11999512 .4482422 .027999878 .34532167 .027999878 .22042847 .027999878 .08631897 .1329956-.0107421879 .24798584-.0107421879 .36999513-.0107421879 .4149933 .10032654 .4149933 .11933899M.34899903 .2524414H.11199951C.117996219 .40126039 .20199585 .426239 .23599243 .426239 .33898927 .426239 .34899903 .2913971 .34899903 .2524414Z"/>
<path id="font_2_47" d="M.5269928 0V.0309906C.45700074 .0309906 .44898988 .038009645 .44898988 .0871582V.69433596L.30499269 .6826172V.6516113C.375 .6516113 .3829956 .64463809 .3829956 .59580996V.38035584C.35398866 .41636659 .31098939 .4423828 .25698854 .4423828 .13899231 .4423828 .033996583 .3443451 .033996583 .21531677 .033996583 .088272098 .13198853-.0107421879 .24598694-.0107421879 .30999757-.0107421879 .35499574 .023254395 .37998963 .055267335V-.0107421879L.5269928 0M.37998963 .117996219C.37998963 .099990848 .37998963 .09799194 .36898805 .08099365 .33898927 .033218385 .2939911 .011245728 .25099183 .011245728 .20599365 .011245728 .16999817 .037216188 .1459961 .075164798 .11999512 .1161499 .116989139 .17320252 .116989139 .21421814 .116989139 .25125123 .11898804 .31129457 .147995 .35632325 .16899109 .38734437 .20698548 .42037965 .26098634 .42037965 .29599 .42037965 .33799745 .405365 .36898805 .3603363 .37998963 .34332276 .37998963 .34132386 .37998963 .32330323V.117996219Z"/>
<path id="font_2_66" d="M.24699402 0V.0309906C.18099976 .0309906 .1769867 .035995485 .1769867 .075042728V.4423828L.036987306 .43066407V.3996582C.101989749 .3996582 .11099243 .3936615 .11099243 .3447113V.07595825C.11099243 .0309906 .099990848 .0309906 .032989503 .0309906V0L.14299011 .0029907227C.17799378 .0029907227 .21299744 .0009918213 .24699402 0M.19198609 .603775C.19198609 .6307678 .16899109 .6567688 .13899231 .6567688 .10499573 .6567688 .084991458 .6287689 .084991458 .603775 .084991458 .57676699 .10798645 .55078127 .13798523 .55078127 .17199707 .55078127 .19198609 .5787811 .19198609 .603775Z"/>
<path id="font_2_28" d="M.48298646 .08912659V.14511109H.45799256V.08912659C.45799256 .03112793 .43299867 .025131226 .42199708 .025131226 .3889923 .025131226 .3849945 .070129398 .3849945 .07511902V.27508546C.3849945 .31707765 .3849945 .3560791 .34899903 .39312745 .30999757 .43223573 .2599945 .4482422 .21199036 .4482422 .12998963 .4482422 .06098938 .40115357 .06098938 .335083 .06098938 .30508424 .08099365 .28808595 .10699463 .28808595 .1349945 .28808595 .15299988 .30807496 .15299988 .33407594 .15299988 .3460846 .147995 .37908937 .101989749 .38008119 .1289978 .41519166 .17799378 .426239 .20999146 .426239 .25898744 .426239 .31599427 .38710023 .31599427 .29808045V.26107789C.2649994 .25808717 .19499207 .25508119 .13198853 .22509766 .056991579 .19110108 .03199768 .13911438 .03199768 .09512329 .03199768 .014251709 .1289978-.0107421879 .19198609-.0107421879 .2579956-.0107421879 .3039856 .029251099 .32299806 .07624817 .32699586 .036132814 .35398866-.005859375 .40098573-.005859375 .42199708-.005859375 .48298646 .008132935 .48298646 .08912659M.31599427 .14013672C.31599427 .04525757 .24398804 .011245728 .19898987 .011245728 .1499939 .011245728 .10899353 .04624939 .10899353 .09625244 .10899353 .15124512 .15098572 .23425293 .31599427 .24024964V.14013672Z"/>
<path id="font_2_77" d="M.5349884 0V.0309906C.48298646 .0309906 .45799256 .0309906 .45700074 .061019899V.25221253C.45700074 .3383026 .45700074 .36932374 .42599488 .405365 .4119873 .42237855 .3789978 .4423828 .32099916 .4423828 .24798584 .4423828 .20098877 .39935304 .17298889 .33729554V.4423828L.03199768 .43066407V.3996582C.101989749 .3996582 .10998535 .39266969 .10998535 .34370423V.07595825C.10998535 .0309906 .09899902 .0309906 .03199768 .0309906V0L.14498902 .0029907227 .25698854 0V.0309906C.18998719 .0309906 .1789856 .0309906 .1789856 .07595825V.25978089C.1789856 .36431886 .25 .42037965 .31399537 .42037965 .3769989 .42037965 .3880005 .36631776 .3880005 .30926515V.076034549C.3880005 .0309906 .3769989 .0309906 .30999757 .0309906V0L.4229889 .0029907227 .5349884 0Z"/>
<path id="font_2_81" d="M.47099305 .21424866C.47099305 .34223939 .37098695 .4482422 .25 .4482422 .125 .4482422 .027999878 .3392334 .027999878 .21424866 .027999878 .085250858 .13198853-.0107421879 .24899292-.0107421879 .36999513-.0107421879 .47099305 .087249759 .47099305 .21424866M.3880005 .22224427C.3880005 .18624878 .3880005 .13224793 .3659973 .08824158 .34399415 .04324341 .2999878 .014251709 .25 .014251709 .20698548 .014251709 .16299439 .035247804 .13598633 .08125305 .11099243 .12524414 .11099243 .18624878 .11099243 .22224427 .11099243 .26124574 .11099243 .31523133 .1349945 .35923768 .1619873 .40522767 .20899964 .426239 .24899292 .426239 .29299928 .426239 .33599855 .40423585 .3619995 .36123658 .3880005 .3182373 .3880005 .26023866 .3880005 .22224427Z"/>
</defs>
<path transform="matrix(1.00006,0,0,-1.00002,3.0959855,163.19095)" stroke-width=".3985" stroke-linecap="butt" stroke-miterlimit="10" stroke-linejoin="miter" fill="none" stroke="#000000" d="M0 0H192.28083"/>
<path transform="matrix(1.00006,0,0,-1.00002,195.38834,163.19095)" d="M1.99252 0-1.19551 1.59401 0 0-1.19551-1.59401"/>
<path transform="matrix(1.00006,0,0,-1.00002,3.0959855,163.19095)" stroke-width=".3985" stroke-linecap="butt" stroke-miterlimit="10" stroke-linejoin="miter" fill="none" stroke="#000000" d="M0 0V159.39928"/>
<path transform="matrix(0,-1.00002,-1.00006,-0,3.0959855,3.7884827)" d="M1.99252 0-1.19551 1.59401 0 0-1.19551-1.59401"/>
<g clip-path="url(#clip_1)">
<path transform="matrix(1.00006,0,0,-1.00002,3.0959855,163.19095)" stroke-width=".79701" stroke-linecap="butt" stroke-miterlimit="10" stroke-linejoin="miter" fill="none" stroke="#000000" d="M0 0 .97623 7.91003 1.95247 15.42902 2.92873 22.56909 3.90497 29.34274 4.88123 35.7701 5.85748 41.858 6.83372 47.62512 7.80998 53.07788 8.78622 58.23163 9.76248 63.09518 10.73871 67.6829 11.71497 72.0053 12.69121 76.06578 13.66745 79.88458 14.6437 83.4727 15.61996 86.81732 16.5962 89.96988 17.57246 92.89584 18.5487 95.62053 19.52496 98.15366 20.5012 100.50664 21.47745 102.67165 22.45369 104.68788 23.42995 106.51454 24.40619 108.21346 25.38245 109.73753 26.35869 111.13344 27.33495 112.38823 28.31119 113.50449 29.28745 114.52315 30.26369 115.39902 31.23993 116.16298 32.21617 116.82233 33.19243 117.38162 34.16867 117.828 35.14493 118.18439 36.12117 118.46654 37.09743 118.64503 38.07367 118.73082 39.04993 118.75491 40.02617 118.70135 41.00243 118.59892 41.97865 118.38869 42.95491 118.14093 43.93117 117.83691 44.90741 117.46722 45.88367 117.04779 46.85991 116.57957 47.83615 116.0238 48.81241 115.47194 49.78865 114.84483 50.76491 114.18248 51.74113 113.49835 52.71739 112.75388 53.69363 112.0317 54.66989 111.2073 55.64615 110.41496 56.62239 109.52974 57.59865 108.64287 58.57489 107.75935 59.55113 106.82936 60.52739 105.9207 61.50363 104.91606 62.47987 103.93425 63.45612 102.97508 64.43237 101.93652 65.40863 100.92174 66.38487 99.89667 67.36113 98.84752 68.33737 97.7766 69.31363 96.70311 70.28987 95.66508 71.26613 94.56653 72.24236 93.46129 73.2186 92.41284 74.19485 91.3029 75.17111 90.18741 76.14735 89.08131 77.12361 87.98732 78.09985 86.8952 79.07611 85.81354 80.05235 84.74478 81.02861 83.61754 82.00485 82.51309 82.9811 81.42726 83.95734 80.36266 84.9336 79.25084 85.90984 78.15634 86.8861 77.09563 87.86234 76.07137 88.8386 74.99777 89.81483 73.94543 90.79109 72.89372 91.76733 71.84988 92.74358 70.81241 93.71982 69.78177 94.69608 68.75986 95.67232 67.74478 96.64857 66.73854 97.62482 65.7395 98.60114 64.74928 99.57729 63.76814 100.5536 62.79506 101.52975 61.83151 102.50607 60.8778 103.48236 59.93198 104.45853 58.99687 105.43483 58.0705 106.411 57.15347 107.3873 56.2471 108.36362 55.35005 109.33977 54.46237 110.31609 53.5857 111.29224 52.71819 112.26855 51.86101 113.24484 51.01457 114.22101 50.17732 115.19731 49.34999 116.17348 48.53387 117.1498 47.72737 118.1261 46.93134 119.10226 46.14433 120.07857 45.36832 121.05472 44.60265 122.03104 43.84644 123.00734 43.10083 123.98349 42.36496 124.9598 41.63864 125.93596 40.9231 126.91228 40.21686 127.88858 39.52034 128.86475 38.83434 129.84105 38.15753 130.81722 37.4908 131.79352 36.83337 132.76982 36.18524 133.74599 35.54735 134.72228 34.91797 135.69844 34.29816 136.67476 33.68796 137.65106 33.08655 138.62723 32.49422 139.60353 31.9116 140.5797 31.33704 141.556 30.77196 142.5323 30.21552 143.50847 29.66713 144.48476 29.12822 145.46092 28.59709 146.43724 28.07465 147.41355 27.5607 148.38971 27.05473 149.36602 26.55681 150.34218 26.06746 151.31848 25.5857 152.29479 25.11133 153.27095 24.64558 154.24726 24.18729 155.2234 23.73668 156.19972 23.2928 157.17603 22.85689 158.15219 22.42845 159.1285 22.00677 160.10466 21.59254 161.08097 21.18501 162.05728 20.78447 163.03343 20.39091 164.00975 20.00397 164.98589 19.62366 165.9622 19.25014 166.9385 18.88292 167.91468 18.52216 168.89098 18.16759 169.86714 17.81905 170.84345 17.47711 171.81977 17.1406 172.79592 16.81026 173.77223 16.48581 174.74839 16.16696 175.72469 15.85379 176.70099 15.54648 177.67716 15.24445 178.65346 14.94774 179.62963 14.65698 180.60593 14.37077 181.58225 14.09016 182.5584 13.81435 183.53472 13.54355 184.51087 13.27782 185.48717 13.01689 186.46347 12.76057 187.43964 12.50922 188.41594 12.26227 189.3921 12.0201 190.36841 11.78221 191.34473 11.54874 192.32088 11.31981 193.2972 11.09483 194.27335 10.87428"/>
<path transform="matrix(1.00006,0,0,-1.00002,3.0959855,163.19095)" stroke-width=".3985" stroke-linecap="butt" stroke-dasharray="2.98883,2.98883" stroke-miterlimit="10" stroke-linejoin="miter" fill="none" stroke="#000000" d="M65.27596 0V100.06291"/>
<use data-text="M" xlink:href="#font_2_74" transform="matrix(9.963197,0,0,-9.962799,71.89611,59.496873)"/>
<use data-text="e" xlink:href="#font_2_50" transform="matrix(9.963197,0,0,-9.962799,81.03236,59.496873)"/>
<use data-text="d" xlink:href="#font_2_47" transform="matrix(9.963197,0,0,-9.962799,85.45602,59.496873)"/>
<use data-text="i" xlink:href="#font_2_66" transform="matrix(9.963197,0,0,-9.962799,90.99556,59.496873)"/>
<use data-text="a" xlink:href="#font_2_28" transform="matrix(9.963197,0,0,-9.962799,93.76533,59.496873)"/>
<use data-text="n" xlink:href="#font_2_77" transform="matrix(9.963197,0,0,-9.962799,98.746929,59.496873)"/>
<path transform="matrix(1.00006,0,0,-1.00002,3.0959855,163.19095)" stroke-width=".3985" stroke-linecap="butt" stroke-dasharray="2.98883,2.98883" stroke-miterlimit="10" stroke-linejoin="miter" fill="none" stroke="#000000" d="M77.70947 0V87.15157"/>
<use data-text="M" xlink:href="#font_2_74" transform="matrix(9.963197,0,0,-9.962799,84.32985,79.38527)"/>
<use data-text="e" xlink:href="#font_2_50" transform="matrix(9.963197,0,0,-9.962799,93.466098,79.38527)"/>
<use data-text="a" xlink:href="#font_2_28" transform="matrix(9.963197,0,0,-9.962799,97.889759,79.38527)"/>
<use data-text="n" xlink:href="#font_2_77" transform="matrix(9.963197,0,0,-9.962799,102.87135,79.38527)"/>
<path transform="matrix(1.00006,0,0,-1.00002,3.0959855,163.19095)" stroke-width=".3985" stroke-linecap="butt" stroke-dasharray="2.98883,2.98883" stroke-miterlimit="10" stroke-linejoin="miter" fill="none" stroke="#000000" d="M38.85474 0V119.42993"/>
<use data-text="M" xlink:href="#font_2_74" transform="matrix(9.963197,0,0,-9.962799,29.772583,40.129487)"/>
<use data-text="o" xlink:href="#font_2_81" transform="matrix(9.963197,0,0,-9.962799,38.90883,40.129487)"/>
<use data-text="d" xlink:href="#font_2_47" transform="matrix(9.963197,0,0,-9.962799,44.169404,40.129487)"/>
<use data-text="e" xlink:href="#font_2_50" transform="matrix(9.963197,0,0,-9.962799,49.70894,40.129487)"/>
</g>
</svg>
